<svg width="63" height="63" viewBox="0 0 63 63" fill="none" xmlns="http://www.w3.org/2000/svg">
<path d="M18.5888 27.1173L18.5865 27.156C18.4355 29.7775 19.9173 32.2334 22.3625 33.4109L22.3876 33.423C23.2497 33.8317 23.9563 34.5055 24.4021 35.3432L24.4121 35.3615C25.6442 37.6865 28.1926 39.0959 30.9092 38.9545L30.9505 38.9523C31.9357 38.8976 32.9137 39.1494 33.7474 39.673C36.0477 41.0989 38.9678 41.0989 41.2681 39.673C42.1018 39.1494 43.0798 38.8976 44.065 38.9523L44.1063 38.9545C46.8185 39.097 49.3702 37.6865 50.605 35.3576L50.6112 35.3449C51.0587 34.5049 51.7669 33.83 52.6318 33.4208L52.6519 33.4109C55.0971 32.2329 56.5794 29.7775 56.4279 27.1554L56.4256 27.1189C56.3755 26.1956 56.634 25.2816 57.1623 24.5189C58.6831 22.3209 58.6831 19.4226 57.1629 17.2241C56.6352 16.462 56.3755 15.5485 56.4256 14.6251L56.4279 14.5865C56.5794 11.9643 55.0971 9.50898 52.6496 8.33045L52.6273 8.3194C51.7669 7.91183 51.062 7.24139 50.6156 6.40582L50.6028 6.38096C49.3702 4.05594 46.8185 2.64712 44.1063 2.78795L44.0645 2.79016C43.0798 2.84483 42.1018 2.593 41.2687 2.06946H41.2676C38.9672 0.643515 36.0472 0.643515 33.7468 2.06946C32.9131 2.59245 31.9351 2.84428 30.9499 2.7896L30.9087 2.7874C28.1959 2.64491 25.6448 4.05539 24.4127 6.37986L24.4032 6.39698C23.9569 7.23642 23.2497 7.91073 22.3865 8.31996L22.3631 8.331C19.9178 9.50842 18.4355 11.9643 18.5871 14.5865L18.5893 14.6229C18.6395 15.5463 18.3809 16.4603 17.8526 17.2224C16.3319 19.421 16.3319 22.3198 17.8526 24.5178C18.3803 25.2799 18.6395 26.1939 18.5888 27.1173ZM19.7311 18.507C20.5464 17.3307 20.946 15.9202 20.868 14.4953L20.8657 14.4567C20.7855 12.7193 21.7696 11.1056 23.3584 10.3672L23.3779 10.3578C24.6813 9.73927 25.7484 8.7209 26.4216 7.45401L26.4328 7.43302C27.2514 5.88779 28.9661 4.95116 30.7872 5.04725L30.8273 5.04891C32.2846 5.13009 33.7306 4.75787 34.9633 3.98359C36.5197 3.01879 38.4947 3.01879 40.0511 3.98359C41.2837 4.75676 42.7298 5.12954 44.1865 5.04946L44.2266 5.04725C46.0567 4.95226 47.763 5.88779 48.5794 7.4286L48.5944 7.45677C49.2676 8.722 50.3337 9.73872 51.6354 10.3567L51.6544 10.3661C53.2682 11.1437 54.2479 12.7491 54.1492 14.4572L54.147 14.4976C54.069 15.9224 54.4691 17.3323 55.2844 18.5086C56.2696 19.9329 56.269 21.8106 55.2832 23.2343C54.4685 24.4112 54.069 25.8217 54.147 27.2465L54.1492 27.2846C54.2479 28.9928 53.2682 30.5988 51.6538 31.3769L51.6371 31.3846C50.3325 32.0043 49.2643 33.0237 48.5905 34.2928L48.5822 34.3094C47.763 35.8546 46.0511 36.7918 44.2272 36.6952L44.1876 36.693C42.7304 36.6123 41.2837 36.9851 40.0505 37.7588C38.4947 38.7231 36.5197 38.7231 34.9639 37.7588C33.8427 37.0547 32.542 36.6814 31.2146 36.6825C31.0859 36.6825 30.9566 36.6858 30.8273 36.693L30.7872 36.6946C28.99 36.8078 27.2898 35.8756 26.4311 34.3066L26.4194 34.2851C25.7473 33.0204 24.6818 32.0043 23.3806 31.3863L23.3595 31.3758C21.7451 30.5982 20.7654 28.9922 20.8646 27.2846L20.8668 27.2443C20.9443 25.8195 20.5442 24.409 19.7295 23.2332C18.7448 21.809 18.7454 19.9313 19.7311 18.5081V18.507Z" fill="#12204B" stroke="#12204B" stroke-width="0.74"/>
<path d="M30.1858 33.1747C30.7169 33.5096 31.4165 33.3458 31.7482 32.8096L45.1857 11.0794C45.405 10.7322 45.4233 10.2927 45.2328 9.92872C45.0422 9.56418 44.6723 9.3316 44.2646 9.31874C43.857 9.30588 43.4737 9.51498 43.261 9.86666L29.8241 31.5969C29.4923 32.1336 29.6541 32.8398 30.1858 33.1747Z" fill="#12204B" stroke="#12204B" stroke-width="0.74"/>
<path d="M31.9618 21.3333C34.7646 21.3333 37.0454 18.6381 37.0454 15.3255C37.0454 12.0128 34.7646 9.31818 31.9618 9.31818C29.1589 9.31818 26.8787 12.0128 26.8787 15.3255C26.8787 18.6381 29.1589 21.3333 31.9618 21.3333ZM31.9618 11.7041C33.4956 11.7041 34.7433 13.3287 34.7433 15.3255C34.7433 17.3223 33.4956 18.9474 31.9618 18.9474C30.4285 18.9474 29.1808 17.3217 29.1808 15.3255C29.1808 13.3292 30.4285 11.7041 31.9618 11.7041Z" fill="#12204B" stroke="#12204B" stroke-width="0.74"/>
<path d="M38.8936 26.8788C38.8936 29.9368 41.1738 32.4242 43.9766 32.4242C46.7795 32.4242 49.0603 29.9362 49.0603 26.8788C49.0603 23.8219 46.7801 21.3333 43.9772 21.3333C41.1738 21.3333 38.8936 23.8202 38.8936 26.8788ZM46.7582 26.8788C46.7582 28.7221 45.5104 30.2217 43.9766 30.2217C42.4434 30.2217 41.1957 28.7221 41.1957 26.8788C41.1957 25.0355 42.4434 23.5358 43.9766 23.5358C45.5104 23.5358 46.7582 25.0344 46.7582 26.8788Z" fill="#12204B" stroke="#12204B" stroke-width="0.74"/>
<path d="M61.8526 45.7871C60.3487 43.095 57.0136 42.0698 54.277 43.458L45.3805 47.6978C44.1521 45.3939 41.7959 43.9273 39.2029 43.8535L30.9901 43.6253C29.6897 43.5878 28.4137 43.255 27.2575 42.6532L26.4218 42.2163C22.1429 39.9667 17.0428 39.9723 12.7684 42.2309L12.8205 40.3213C12.8377 39.6887 12.3436 39.1618 11.7164 39.1444L2.71064 38.8944C2.08346 38.8771 1.56163 39.3755 1.54444 40.0081L1.00044 59.9422C0.983244 60.5749 1.47734 61.1017 2.10453 61.1191L11.1103 61.3691H11.1419C11.7569 61.3686 12.2599 60.8747 12.2771 60.2549L12.3026 59.3012L14.6422 58.0377C15.5605 57.5393 16.6346 57.4208 17.6378 57.7071L31.6084 61.6622C31.6328 61.6695 31.6572 61.6751 31.6822 61.6807C32.692 61.8938 33.7212 62.0006 34.7532 62C36.9381 62.0012 39.0975 61.5263 41.0833 60.6067C41.1321 60.5844 41.1792 60.5586 41.2242 60.5295L61.4805 47.313C61.9857 46.9841 62.1487 46.3146 61.8526 45.7871ZM3.30234 58.8599L3.78368 41.2168L10.5192 41.4036L10.0373 59.0473L3.30234 58.8599ZM40.0596 58.5596C37.5925 59.6827 34.8369 59.9926 32.1851 59.4456L18.2517 55.5017C16.684 55.0542 15.0048 55.2399 13.5702 56.0179L12.3747 56.6634L12.6952 44.9325C16.4833 42.3908 21.3422 42.1296 25.377 44.2501L26.2127 44.6869C27.6734 45.4476 29.2849 45.8677 30.928 45.9152L39.1407 46.1434C41.4476 46.21 43.4068 47.8667 43.8749 50.1466L31.6417 49.8071C31.0145 49.7897 30.4927 50.2881 30.4755 50.9207C30.4583 51.5533 30.9524 52.0802 31.5796 52.0976L45.0799 52.4723H45.1121C45.7265 52.4717 46.2295 51.9779 46.2467 51.3581C46.2605 50.8603 46.2234 50.3619 46.1368 49.872L55.2602 45.5231L55.2868 45.5102C56.5811 44.8491 58.1466 45.0701 59.2107 46.064L40.0596 58.5596Z" fill="#12204B" stroke="#12204B" stroke-width="0.74"/>
</svg>
