<svg width="31" height="29" viewBox="0 0 31 29" fill="none" xmlns="http://www.w3.org/2000/svg">
<path d="M30.8422 0.115C30.7042 -0.00603423 30.5078 -0.0341149 30.3414 0.0430839L0.268138 14.016C0.106234 14.0912 0.00197386 14.2528 2.76766e-05 14.4313C-0.00191851 14.6097 0.0989126 14.7735 0.259241 14.8522L8.76992 19.0289C8.92599 19.1055 9.11208 19.0882 9.25146 18.984L17.5262 12.7994L11.0302 19.4813C10.9375 19.5767 10.8902 19.7073 10.9004 19.8398L11.5472 28.263C11.5616 28.4496 11.6867 28.6092 11.8645 28.6677C11.9121 28.6833 11.9609 28.6909 12.0092 28.6909C12.1416 28.6909 12.2705 28.6341 12.3601 28.5303L16.8773 23.2958L22.4615 25.9639C22.5827 26.0218 22.723 26.0242 22.8461 25.9707C22.9693 25.917 23.0631 25.8127 23.1033 25.6846L30.9787 0.602196C31.0338 0.427039 30.9801 0.236035 30.8422 0.115Z" fill="#B10028"/>
</svg>
