<svg width="70" height="62" viewBox="0 0 70 62" fill="none" xmlns="http://www.w3.org/2000/svg">
<path d="M68.839 17.9709C68.839 17.6711 68.7199 17.3835 68.5077 17.1715L52.6533 1.318C52.2046 0.894001 51.503 0.894001 51.0544 1.318L43.1396 9.23384C40.5033 7.30678 36.9009 7.39238 34.3592 9.44266C31.9222 8.12006 28.9411 8.32053 26.7032 9.95768L18.7844 2.03799C18.5724 1.82586 18.2849 1.70675 17.9851 1.70675C17.6852 1.70675 17.3977 1.82586 17.1857 2.03799L1.33125 17.8925C1.11912 18.1045 1 18.392 1 18.6918C1 18.9917 1.11912 19.2792 1.33125 19.4912L9.18296 27.3429C6.43243 30.1845 6.46569 34.7058 9.25795 37.5064L10.629 38.8775C9.18521 40.381 8.77871 42.6013 9.59609 44.5189C10.4135 46.4364 12.2968 47.6807 14.3813 47.6802C14.5889 47.6724 14.7958 47.6521 15.001 47.6196C14.8124 49.0955 15.2693 50.5812 16.2547 51.6962C17.2399 52.8112 18.658 53.4473 20.146 53.4417C20.2111 53.4417 20.2752 53.4257 20.3401 53.4232C20.0938 55.0931 20.8814 56.746 22.3331 57.607C23.7849 58.4678 25.6131 58.3658 26.9601 57.3486C27.1496 58.0188 27.5053 58.6301 27.9943 59.1259C29.6309 60.7586 32.2803 60.7586 33.9169 59.1259L34.559 58.484L35.9222 59.847C36.9595 60.9009 38.4787 61.3241 39.9116 60.9582C41.3444 60.5924 42.4747 59.4925 42.8797 58.0703C44.218 59.1272 46.069 59.2509 47.5362 58.3814C49.0032 57.5118 49.7835 55.8287 49.4987 54.1473C49.5641 54.1497 49.6263 54.1662 49.6919 54.1662C52.571 54.1645 54.9037 51.8294 54.9024 48.9502C54.8931 48.7453 54.8721 48.5413 54.8392 48.3388C55.044 48.3708 55.2506 48.3905 55.4578 48.3981C57.5646 48.4007 59.4649 47.1327 60.2711 45.1864C61.0774 43.2402 60.6304 40.9998 59.139 39.5118L58.4971 38.8699L60.581 36.7867C63.3734 33.9858 63.4065 29.4641 60.6553 26.6226L68.5076 18.7703C68.7199 18.5583 68.839 18.2708 68.839 17.9709ZM12.2988 44.5555C11.1504 43.4042 11.1504 41.5408 12.2988 40.3895L16.6226 36.0657C17.3668 35.3214 18.4515 35.0308 19.468 35.3033C20.4845 35.5757 21.2786 36.3696 21.551 37.3863C21.8234 38.4029 21.5327 39.4876 20.7886 40.2317L16.4648 44.5555C15.2991 45.6686 13.4644 45.6686 12.2988 44.5555ZM22.2242 50.3258C21.0727 51.4702 19.2127 51.4682 18.0635 50.3214C16.9152 49.1697 16.9152 47.306 18.0635 46.1543L22.3873 41.8305C23.5383 40.6828 25.4014 40.6842 26.5507 41.8334C27.7001 42.9827 27.7014 44.8458 26.5537 45.9968L22.2242 50.3258ZM27.9924 53.2055L25.8323 55.3652C25.079 56.1161 23.8605 56.116 23.1072 55.3652C22.3563 54.612 22.3563 53.3934 23.1072 52.6401L23.823 51.9245L23.8283 51.9203L28.1521 47.5965L28.1526 47.5957L28.8731 46.8754C29.6255 46.1249 30.8434 46.1253 31.5953 46.8761C32.3472 47.6269 32.3494 48.8447 31.6001 49.5981L27.9943 53.2031L27.9924 53.2055ZM32.3181 57.5271C31.565 58.2779 30.3462 58.2779 29.593 57.5271C28.8431 56.7746 28.8423 55.5576 29.5911 54.8042L33.1971 51.1992L33.1989 51.197L35.359 49.0372C35.8458 48.5504 36.5554 48.3603 37.2203 48.5385C37.8853 48.7167 38.4047 49.2361 38.5827 49.901C38.7608 50.5659 38.5708 51.2754 38.084 51.7622L32.3181 57.5271ZM40.246 58.2481C39.4927 58.999 38.274 58.999 37.5209 58.2481L36.1581 56.8852L38.8835 54.1604L40.2449 55.5218C40.9953 56.2756 40.9958 57.4939 40.246 58.2481ZM57.5403 45.2765C56.389 46.4249 54.5256 46.4249 53.3743 45.2765L44.0067 35.9079C43.5652 35.4664 42.8493 35.4664 42.4078 35.9079C41.9663 36.3493 41.9663 37.0652 42.4078 37.5067L51.7754 46.8754C52.3296 47.427 52.6411 48.1765 52.6411 48.9584C52.6411 49.7403 52.3296 50.4898 51.7754 51.0414C50.6062 52.1694 48.7516 52.1615 47.5918 51.0238L44.7464 48.3043C44.2949 47.8747 43.5808 47.8917 43.1501 48.3419C42.7192 48.7923 42.7339 49.5061 43.1829 49.9384L46.0107 52.6403L46.7306 53.3601C47.2191 53.8464 47.4106 54.5566 47.2329 55.2225C47.0552 55.8885 46.5353 56.4088 45.8695 56.587C45.2037 56.7652 44.4933 56.5743 44.0067 56.0861L40.3583 52.4378C41.3327 50.721 40.9682 48.5561 39.4853 47.2532C38.0024 45.9502 35.8086 45.8671 34.2314 47.0541C33.6708 45.0566 31.707 43.7922 29.6566 44.1084C29.726 42.5882 29.1192 41.115 27.9989 40.0849C26.8788 39.0547 25.3601 38.5731 23.8509 38.7693C24.1235 36.5684 22.9674 34.4374 20.9738 33.4657C18.9803 32.494 16.5896 32.8963 15.0237 34.4669L12.2197 37.271L10.8567 35.9079C8.91386 33.9603 8.91386 30.8077 10.8567 28.86L11.5777 28.1401C11.7903 27.9282 11.9095 27.64 11.909 27.3397C11.909 27.3224 11.8998 27.3062 11.899 27.2888C11.8898 27.0079 11.7756 26.7408 11.5788 26.5401L11.5755 26.5378L3.72946 18.6918L17.9851 4.43621L25.8323 12.2845C26.0443 12.4966 26.3318 12.6157 26.6317 12.6157C26.9315 12.6157 27.219 12.4966 27.431 12.2845C28.7838 10.9282 30.7986 10.4757 32.6015 11.1233L22.9503 20.7743C20.9203 22.8084 20.9219 26.1023 22.9538 28.1345C24.9856 30.1666 28.2795 30.1686 30.3139 28.139L37.4418 21.0111L57.5402 41.1104C58.0943 41.662 58.4058 42.4115 58.4058 43.1934C58.4059 43.9754 58.0944 44.725 57.5403 45.2765ZM58.2612 25.8192C58.0491 26.0312 57.93 26.3187 57.93 26.6185C57.93 26.9184 58.0491 27.206 58.2612 27.4179L58.9823 28.139C60.925 30.0871 60.925 33.2397 58.9823 35.1879L56.8985 37.2709L39.0408 19.4124L41.1238 17.3293C41.5653 16.8879 41.5653 16.172 41.1238 15.7305C40.6823 15.289 39.9664 15.289 39.5249 15.7305L36.6453 18.6101L36.642 18.6125L36.6398 18.6158L28.7153 26.5402C27.5497 27.6532 25.715 27.6532 24.5493 26.5402C23.9952 25.9885 23.6837 25.2387 23.6837 24.4567C23.6837 23.6747 23.9952 22.9249 24.5493 22.3732L35.3589 11.5646C37.3061 9.61981 40.4606 9.61981 42.4078 11.5646L43.8487 13.0055C44.2902 13.447 45.0061 13.447 45.4476 13.0055C45.8891 12.564 45.8891 11.8483 45.4476 11.4067L44.806 10.7651L51.8539 3.71621L66.1096 17.9709L58.2612 25.8192Z" fill="#12204B" stroke="#12204B" stroke-width="0.75"/>
</svg>
