<svg width="60" height="60" viewBox="0 0 60 60" fill="none" xmlns="http://www.w3.org/2000/svg">
<g clip-path="url(#clip0_1_261)">
<path fill-rule="evenodd" clip-rule="evenodd" d="M34.3605 60H4.375C1.9625 60 0 58.0375 0 55.625V4.82749C0 3.53749 0.565 2.32249 1.5475 1.48749C2.53 0.652493 3.825 0.294992 5.0925 0.509992L32.565 4.67249C34.7125 5.02999 36.25 6.84499 36.25 8.99249V22.8526L56.5503 27.105C58.5902 27.5575 60.0002 29.3125 60.0002 31.38V55.625C60.0002 58.0375 58.0377 60 55.6252 60H34.3753L34.3605 60ZM3.9725 4.34749C4.04 4.28999 4.175 4.20249 4.3775 4.20249C4.4175 4.20249 4.46 4.20749 4.505 4.21499L31.9775 8.37499C32.28 8.42499 32.5 8.68499 32.5 8.99249V56.25H26.25V46.875C26.25 44.4624 24.2875 42.4999 21.875 42.4999H15.625C13.2125 42.4999 11.25 44.4624 11.25 46.875V56.25H4.375C4.03 56.25 3.75 55.97 3.75 55.625V4.82749C3.75 4.57499 3.89 4.41999 3.9725 4.34749ZM55.6252 56.25H36.2503V26.6825L55.7627 30.77C56.0502 30.835 56.2502 31.085 56.2502 31.38V55.625C56.2502 55.97 55.9702 56.25 55.6252 56.25ZM15 55.625H22.5V46.875C22.5 46.5299 22.22 46.25 21.875 46.25H15.625C15.28 46.25 15 46.5299 15 46.875V55.625ZM10.6248 15H14.3748C15.4098 15 16.2498 14.16 16.2498 13.125C16.2498 12.09 15.4098 11.25 14.3748 11.25H10.6248C9.58977 11.25 8.74977 12.09 8.74977 13.125C8.74977 14.16 9.58977 15 10.6248 15ZM26.8752 15H23.1252C22.0902 15 21.2502 14.16 21.2502 13.125C21.2502 12.09 22.0902 11.25 23.1252 11.25H26.8752C27.9102 11.25 28.7502 12.09 28.7502 13.125C28.7502 14.16 27.9102 15 26.8752 15ZM10.6248 22.5H14.3748C15.4098 22.5 16.2498 21.66 16.2498 20.625C16.2498 19.59 15.4098 18.75 14.3748 18.75H10.6248C9.58977 18.75 8.74977 19.59 8.74977 20.625C8.74977 21.66 9.58977 22.5 10.6248 22.5ZM26.8752 22.5H23.1252C22.0902 22.5 21.2502 21.66 21.2502 20.625C21.2502 19.59 22.0902 18.75 23.1252 18.75H26.8752C27.9102 18.75 28.7502 19.59 28.7502 20.625C28.7502 21.66 27.9102 22.5 26.8752 22.5ZM10.6248 30H14.3748C15.4098 30 16.2498 29.16 16.2498 28.125C16.2498 27.09 15.4098 26.25 14.3748 26.25H10.6248C9.58977 26.25 8.74977 27.09 8.74977 28.125C8.74977 29.16 9.58977 30 10.6248 30ZM26.8752 30H23.1252C22.0902 30 21.2502 29.16 21.2502 28.125C21.2502 27.09 22.0902 26.25 23.1252 26.25H26.8752C27.9102 26.25 28.7502 27.09 28.7502 28.125C28.7502 29.16 27.9102 30 26.8752 30ZM10.6248 37.5H14.3748C15.4098 37.5 16.2498 36.66 16.2498 35.625C16.2498 34.59 15.4098 33.75 14.3748 33.75H10.6248C9.58977 33.75 8.74977 34.59 8.74977 35.625C8.74977 36.66 9.58977 37.5 10.6248 37.5ZM26.8752 37.5H23.1252C22.0902 37.5 21.2502 36.66 21.2502 35.625C21.2502 34.59 22.0902 33.75 23.1252 33.75H26.8752C27.9102 33.75 28.7502 34.59 28.7502 35.625C28.7502 36.66 27.9102 37.5 26.8752 37.5ZM44.3747 37.5H48.1247C49.1597 37.5 49.9997 36.66 49.9997 35.625C49.9997 34.59 49.1597 33.75 48.1247 33.75H44.3747C43.3397 33.75 42.4997 34.59 42.4997 35.625C42.4997 36.66 43.3397 37.5 44.3747 37.5ZM48.1247 45H44.3747C43.3397 45 42.4997 44.16 42.4997 43.125C42.4997 42.09 43.3397 41.25 44.3747 41.25H48.1247C49.1597 41.25 49.9997 42.09 49.9997 43.125C49.9997 44.16 49.1597 45 48.1247 45ZM44.3747 52.5H48.1247C49.1597 52.5 49.9997 51.66 49.9997 50.625C49.9997 49.59 49.1597 48.75 48.1247 48.75H44.3747C43.3397 48.75 42.4997 49.59 42.4997 50.625C42.4997 51.66 43.3397 52.5 44.3747 52.5Z" fill="#12204B"/>
<path d="M34.3605 60L34.3619 59.625H34.3605V60ZM1.5475 1.48749L1.30465 1.20175H1.30465L1.5475 1.48749ZM5.0925 0.509992L5.02978 0.879769L5.03632 0.880761L5.0925 0.509992ZM32.565 4.67249L32.6266 4.30254L32.6212 4.30172L32.565 4.67249ZM36.25 22.8526H35.875V23.1572L36.1731 23.2196L36.25 22.8526ZM56.5503 27.105L56.6315 26.7389L56.6271 26.738L56.5503 27.105ZM34.3753 60L34.3738 60.375H34.3753V60ZM3.9725 4.34749L3.7293 4.06199L3.72496 4.06581L3.9725 4.34749ZM4.505 4.21499L4.44334 4.58493L4.44886 4.58577L4.505 4.21499ZM31.9775 8.37499L32.0387 8.00498L32.0336 8.00422L31.9775 8.37499ZM32.5 56.25V56.625H32.875V56.25H32.5ZM26.25 56.25H25.875V56.625H26.25V56.25ZM11.25 56.25V56.625H11.625V56.25H11.25ZM36.2503 56.25H35.8753V56.625H36.2503V56.25ZM36.2503 26.6825L36.3271 26.3155L35.8753 26.2208V26.6825H36.2503ZM55.7627 30.77L55.8455 30.4042L55.8396 30.403L55.7627 30.77ZM22.5 55.625V56H22.875V55.625H22.5ZM15 55.625H14.625V56H15V55.625ZM4.375 60.375H34.3605V59.625H4.375V60.375ZM-0.375 55.625C-0.375 58.2446 1.75539 60.375 4.375 60.375V59.625C2.16961 59.625 0.375 57.8304 0.375 55.625H-0.375ZM-0.375 4.82749V55.625H0.375V4.82749H-0.375ZM1.30465 1.20175C0.238763 2.10762 -0.375 3.42688 -0.375 4.82749H0.375C0.375 3.6481 0.891236 2.53737 1.79035 1.77324L1.30465 1.20175ZM5.15521 0.140274C3.77795 -0.0933457 2.3712 0.295317 1.30465 1.20175L1.79035 1.77324C2.6888 1.00967 3.87205 0.683331 5.02979 0.879711L5.15521 0.140274ZM32.6212 4.30172L5.14868 0.139224L5.03632 0.880761L32.5088 5.04326L32.6212 4.30172ZM36.625 8.99249C36.625 6.66014 34.9534 4.68994 32.6266 4.30258L32.5034 5.0424C34.4716 5.37004 35.875 7.02984 35.875 8.99249H36.625ZM36.625 22.8526V8.99249H35.875V22.8526H36.625ZM56.6271 26.738L36.3269 22.4856L36.1731 23.2196L56.4734 27.4721L56.6271 26.738ZM60.3752 31.38C60.3752 29.1354 58.8418 27.2292 56.6315 26.7389L56.469 27.4711C58.3387 27.8858 59.6252 29.4897 59.6252 31.38H60.3752ZM60.3752 55.625V31.38H59.6252V55.625H60.3752ZM55.6252 60.375C58.2449 60.375 60.3752 58.2446 60.3752 55.625H59.6252C59.6252 57.8304 57.8306 59.625 55.6252 59.625V60.375ZM34.3753 60.375H55.6252V59.625H34.3753V60.375ZM34.359 60.375L34.3738 60.375L34.3767 59.625L34.3619 59.625L34.359 60.375ZM4.3775 3.82749C4.05933 3.82749 3.84127 3.96666 3.72932 4.06203L4.21568 4.63296C4.23873 4.61332 4.29067 4.57749 4.3775 4.57749V3.82749ZM4.56665 3.84509C4.51237 3.83605 4.44698 3.82749 4.3775 3.82749V4.57749C4.38802 4.57749 4.40763 4.57894 4.44335 4.58489L4.56665 3.84509ZM32.0336 8.00422L4.56114 3.84422L4.44886 4.58577L31.9214 8.74576L32.0336 8.00422ZM32.875 8.99249C32.875 8.5023 32.523 8.08507 32.0387 8.00501L31.9163 8.74497C32.037 8.76491 32.125 8.86768 32.125 8.99249H32.875ZM32.875 56.25V8.99249H32.125V56.25H32.875ZM26.25 56.625H32.5V55.875H26.25V56.625ZM25.875 46.875V56.25H26.625V46.875H25.875ZM21.875 42.8749C24.0804 42.8749 25.875 44.6696 25.875 46.875H26.625C26.625 44.2553 24.4946 42.1249 21.875 42.1249V42.8749ZM15.625 42.8749H21.875V42.1249H15.625V42.8749ZM11.625 46.875C11.625 44.6696 13.4196 42.8749 15.625 42.8749V42.1249C13.0054 42.1249 10.875 44.2553 10.875 46.875H11.625ZM11.625 56.25V46.875H10.875V56.25H11.625ZM4.375 56.625H11.25V55.875H4.375V56.625ZM3.375 55.625C3.375 56.1771 3.8229 56.625 4.375 56.625V55.875C4.2371 55.875 4.125 55.7629 4.125 55.625H3.375ZM3.375 4.82749V55.625H4.125V4.82749H3.375ZM3.72496 4.06581C3.60406 4.17205 3.375 4.42106 3.375 4.82749H4.125C4.125 4.72892 4.17594 4.66794 4.22004 4.62918L3.72496 4.06581ZM36.2503 56.625H55.6252V55.875H36.2503V56.625ZM35.8753 26.6825V56.25H36.6253V26.6825H35.8753ZM55.8396 30.403L36.3271 26.3155L36.1734 27.0496L55.6859 31.1371L55.8396 30.403ZM56.6252 31.38C56.6252 30.9097 56.3038 30.5079 55.8454 30.4043L55.6801 31.1358C55.7967 31.1622 55.8752 31.2604 55.8752 31.38H56.6252ZM56.6252 55.625V31.38H55.8752V55.625H56.6252ZM55.6252 56.625C56.1774 56.625 56.6252 56.1771 56.6252 55.625H55.8752C55.8752 55.7629 55.7631 55.875 55.6252 55.875V56.625ZM22.5 55.25H15V56H22.5V55.25ZM22.125 46.875V55.625H22.875V46.875H22.125ZM21.875 46.625C22.0129 46.625 22.125 46.7371 22.125 46.875H22.875C22.875 46.3228 22.4271 45.875 21.875 45.875V46.625ZM15.625 46.625H21.875V45.875H15.625V46.625ZM15.375 46.875C15.375 46.7371 15.4871 46.625 15.625 46.625V45.875C15.0729 45.875 14.625 46.3228 14.625 46.875H15.375ZM15.375 55.625V46.875H14.625V55.625H15.375ZM14.3748 14.625H10.6248V15.375H14.3748V14.625ZM15.8748 13.125C15.8748 13.9529 15.2027 14.625 14.3748 14.625V15.375C15.6169 15.375 16.6248 14.3671 16.6248 13.125H15.8748ZM14.3748 11.625C15.2027 11.625 15.8748 12.2971 15.8748 13.125H16.6248C16.6248 11.8829 15.6169 10.875 14.3748 10.875V11.625ZM10.6248 11.625H14.3748V10.875H10.6248V11.625ZM9.12477 13.125C9.12477 12.2971 9.79687 11.625 10.6248 11.625V10.875C9.38266 10.875 8.37477 11.8829 8.37477 13.125H9.12477ZM10.6248 14.625C9.79687 14.625 9.12477 13.9529 9.12477 13.125H8.37477C8.37477 14.3671 9.38266 15.375 10.6248 15.375V14.625ZM23.1252 15.375H26.8752V14.625H23.1252V15.375ZM20.8752 13.125C20.8752 14.3671 21.8831 15.375 23.1252 15.375V14.625C22.2973 14.625 21.6252 13.9529 21.6252 13.125H20.8752ZM23.1252 10.875C21.8831 10.875 20.8752 11.8829 20.8752 13.125H21.6252C21.6252 12.2971 22.2973 11.625 23.1252 11.625V10.875ZM26.8752 10.875H23.1252V11.625H26.8752V10.875ZM29.1252 13.125C29.1252 11.8829 28.1173 10.875 26.8752 10.875V11.625C27.7031 11.625 28.3752 12.2971 28.3752 13.125H29.1252ZM26.8752 15.375C28.1173 15.375 29.1252 14.3671 29.1252 13.125H28.3752C28.3752 13.9529 27.7031 14.625 26.8752 14.625V15.375ZM14.3748 22.125H10.6248V22.875H14.3748V22.125ZM15.8748 20.625C15.8748 21.4529 15.2027 22.125 14.3748 22.125V22.875C15.6169 22.875 16.6248 21.8671 16.6248 20.625H15.8748ZM14.3748 19.125C15.2027 19.125 15.8748 19.7971 15.8748 20.625H16.6248C16.6248 19.3829 15.6169 18.375 14.3748 18.375V19.125ZM10.6248 19.125H14.3748V18.375H10.6248V19.125ZM9.12477 20.625C9.12477 19.7971 9.79687 19.125 10.6248 19.125V18.375C9.38266 18.375 8.37477 19.3829 8.37477 20.625H9.12477ZM10.6248 22.125C9.79687 22.125 9.12477 21.4529 9.12477 20.625H8.37477C8.37477 21.8671 9.38266 22.875 10.6248 22.875V22.125ZM23.1252 22.875H26.8752V22.125H23.1252V22.875ZM20.8752 20.625C20.8752 21.8671 21.8831 22.875 23.1252 22.875V22.125C22.2973 22.125 21.6252 21.4529 21.6252 20.625H20.8752ZM23.1252 18.375C21.8831 18.375 20.8752 19.3829 20.8752 20.625H21.6252C21.6252 19.7971 22.2973 19.125 23.1252 19.125V18.375ZM26.8752 18.375H23.1252V19.125H26.8752V18.375ZM29.1252 20.625C29.1252 19.3829 28.1173 18.375 26.8752 18.375V19.125C27.7031 19.125 28.3752 19.7971 28.3752 20.625H29.1252ZM26.8752 22.875C28.1173 22.875 29.1252 21.8671 29.1252 20.625H28.3752C28.3752 21.4529 27.7031 22.125 26.8752 22.125V22.875ZM14.3748 29.625H10.6248V30.375H14.3748V29.625ZM15.8748 28.125C15.8748 28.9529 15.2027 29.625 14.3748 29.625V30.375C15.6169 30.375 16.6248 29.3671 16.6248 28.125H15.8748ZM14.3748 26.625C15.2027 26.625 15.8748 27.2971 15.8748 28.125H16.6248C16.6248 26.8829 15.6169 25.875 14.3748 25.875V26.625ZM10.6248 26.625H14.3748V25.875H10.6248V26.625ZM9.12477 28.125C9.12477 27.2971 9.79687 26.625 10.6248 26.625V25.875C9.38266 25.875 8.37477 26.8829 8.37477 28.125H9.12477ZM10.6248 29.625C9.79687 29.625 9.12477 28.9529 9.12477 28.125H8.37477C8.37477 29.3671 9.38266 30.375 10.6248 30.375V29.625ZM23.1252 30.375H26.8752V29.625H23.1252V30.375ZM20.8752 28.125C20.8752 29.3671 21.8831 30.375 23.1252 30.375V29.625C22.2973 29.625 21.6252 28.9529 21.6252 28.125H20.8752ZM23.1252 25.875C21.8831 25.875 20.8752 26.8829 20.8752 28.125H21.6252C21.6252 27.2971 22.2973 26.625 23.1252 26.625V25.875ZM26.8752 25.875H23.1252V26.625H26.8752V25.875ZM29.1252 28.125C29.1252 26.8829 28.1173 25.875 26.8752 25.875V26.625C27.7031 26.625 28.3752 27.2971 28.3752 28.125H29.1252ZM26.8752 30.375C28.1173 30.375 29.1252 29.3671 29.1252 28.125H28.3752C28.3752 28.9529 27.7031 29.625 26.8752 29.625V30.375ZM14.3748 37.125H10.6248V37.875H14.3748V37.125ZM15.8748 35.625C15.8748 36.4529 15.2027 37.125 14.3748 37.125V37.875C15.6169 37.875 16.6248 36.8671 16.6248 35.625H15.8748ZM14.3748 34.125C15.2027 34.125 15.8748 34.7971 15.8748 35.625H16.6248C16.6248 34.3829 15.6169 33.375 14.3748 33.375V34.125ZM10.6248 34.125H14.3748V33.375H10.6248V34.125ZM9.12477 35.625C9.12477 34.7971 9.79687 34.125 10.6248 34.125V33.375C9.38266 33.375 8.37477 34.3829 8.37477 35.625H9.12477ZM10.6248 37.125C9.79687 37.125 9.12477 36.4529 9.12477 35.625H8.37477C8.37477 36.8671 9.38266 37.875 10.6248 37.875V37.125ZM23.1252 37.875H26.8752V37.125H23.1252V37.875ZM20.8752 35.625C20.8752 36.8671 21.8831 37.875 23.1252 37.875V37.125C22.2973 37.125 21.6252 36.4529 21.6252 35.625H20.8752ZM23.1252 33.375C21.8831 33.375 20.8752 34.3829 20.8752 35.625H21.6252C21.6252 34.7971 22.2973 34.125 23.1252 34.125V33.375ZM26.8752 33.375H23.1252V34.125H26.8752V33.375ZM29.1252 35.625C29.1252 34.3829 28.1173 33.375 26.8752 33.375V34.125C27.7031 34.125 28.3752 34.7971 28.3752 35.625H29.1252ZM26.8752 37.875C28.1173 37.875 29.1252 36.8671 29.1252 35.625H28.3752C28.3752 36.4529 27.7031 37.125 26.8752 37.125V37.875ZM48.1247 37.125H44.3747V37.875H48.1247V37.125ZM49.6247 35.625C49.6247 36.4529 48.9526 37.125 48.1247 37.125V37.875C49.3668 37.875 50.3747 36.8671 50.3747 35.625H49.6247ZM48.1247 34.125C48.9526 34.125 49.6247 34.7971 49.6247 35.625H50.3747C50.3747 34.3829 49.3668 33.375 48.1247 33.375V34.125ZM44.3747 34.125H48.1247V33.375H44.3747V34.125ZM42.8747 35.625C42.8747 34.7971 43.5468 34.125 44.3747 34.125V33.375C43.1326 33.375 42.1247 34.3829 42.1247 35.625H42.8747ZM44.3747 37.125C43.5468 37.125 42.8747 36.4529 42.8747 35.625H42.1247C42.1247 36.8671 43.1326 37.875 44.3747 37.875V37.125ZM44.3747 45.375H48.1247V44.625H44.3747V45.375ZM42.1247 43.125C42.1247 44.3671 43.1326 45.375 44.3747 45.375V44.625C43.5468 44.625 42.8747 43.9529 42.8747 43.125H42.1247ZM44.3747 40.875C43.1326 40.875 42.1247 41.8829 42.1247 43.125H42.8747C42.8747 42.2971 43.5468 41.625 44.3747 41.625V40.875ZM48.1247 40.875H44.3747V41.625H48.1247V40.875ZM50.3747 43.125C50.3747 41.8829 49.3668 40.875 48.1247 40.875V41.625C48.9526 41.625 49.6247 42.2971 49.6247 43.125H50.3747ZM48.1247 45.375C49.3668 45.375 50.3747 44.3671 50.3747 43.125H49.6247C49.6247 43.9529 48.9526 44.625 48.1247 44.625V45.375ZM48.1247 52.125H44.3747V52.875H48.1247V52.125ZM49.6247 50.625C49.6247 51.4529 48.9526 52.125 48.1247 52.125V52.875C49.3668 52.875 50.3747 51.8671 50.3747 50.625H49.6247ZM48.1247 49.125C48.9526 49.125 49.6247 49.7971 49.6247 50.625H50.3747C50.3747 49.3829 49.3668 48.375 48.1247 48.375V49.125ZM44.3747 49.125H48.1247V48.375H44.3747V49.125ZM42.8747 50.625C42.8747 49.7971 43.5468 49.125 44.3747 49.125V48.375C43.1326 48.375 42.1247 49.3829 42.1247 50.625H42.8747ZM44.3747 52.125C43.5468 52.125 42.8747 51.4529 42.8747 50.625H42.1247C42.1247 51.8671 43.1326 52.875 44.3747 52.875V52.125Z" fill="white"/>
</g>
<defs>
<clipPath id="clip0_1_261">
<rect width="60" height="60" fill="white"/>
</clipPath>
</defs>
</svg>
