<svg width="22" height="21" viewBox="0 0 22 21" fill="none" xmlns="http://www.w3.org/2000/svg">
<path fill-rule="evenodd" clip-rule="evenodd" d="M4.99867 6.82357H0.272135V21H4.99867V6.82357ZM5.29945 2.44619C5.28513 1.05858 4.28257 -1.2105e-06 2.66408 -1.2105e-06C1.05991 -1.2105e-06 2.93501e-05 1.05858 2.93501e-05 2.44619C2.93501e-05 3.80518 1.01695 4.89237 2.6068 4.89237H2.6354C4.28254 4.89237 5.31378 3.80518 5.29945 2.44619ZM12.3177 8.83853V6.82357H7.60544C7.60544 6.82357 7.66273 8.15395 7.60544 21H12.3177V13.0892C12.3177 12.6601 12.3607 12.2452 12.4753 11.9305C12.819 11.0865 13.5925 10.2139 14.8958 10.2139C16.6003 10.2139 17.2878 11.5157 17.2878 13.4183V21H22V12.8747C22 8.52588 19.6797 6.49455 16.5716 6.49455C14.0611 6.49455 12.9395 7.86773 12.3177 8.83853Z" fill="white"/>
</svg>
