<svg width="21" height="20" viewBox="0 0 21 20" fill="none" xmlns="http://www.w3.org/2000/svg">
<path d="M14.207 8.46154C14.207 11.4303 11.7281 13.8462 8.68203 13.8462C5.63592 13.8462 3.1571 11.4303 3.1571 8.46154C3.1571 5.49279 5.63592 3.07692 8.68203 3.07692C11.7281 3.07692 14.207 5.49279 14.207 8.46154ZM20.5212 18.4615C20.5212 18.0529 20.3485 17.6562 20.0649 17.3798L15.8348 13.2572C16.8338 11.851 17.3641 10.1683 17.3641 8.46154C17.3641 3.78606 13.4794 0 8.68203 0C3.88472 0 0 3.78606 0 8.46154C0 13.137 3.88472 16.9231 8.68203 16.9231C10.4332 16.9231 12.1598 16.4062 13.6027 15.4327L17.8327 19.5433C18.1163 19.8317 18.5233 20 18.9426 20C19.8059 20 20.5212 19.3029 20.5212 18.4615Z" fill="white"/>
</svg>
