<svg width="17" height="20" viewBox="0 0 17 20" fill="none" xmlns="http://www.w3.org/2000/svg">
<path d="M13.1837 11.1606C12.273 11.1606 11.4381 11.5289 10.8202 12.1205L6.91709 10.1115C6.92793 9.98877 6.93878 9.85484 6.93878 9.73207C6.93878 9.60931 6.92793 9.47538 6.91709 9.35261L10.8202 7.34368C11.4381 7.9352 12.273 8.3035 13.1837 8.3035C15.1027 8.3035 16.6531 6.70752 16.6531 4.73207C16.6531 2.75663 15.1027 1.16064 13.1837 1.16064C11.2647 1.16064 9.71429 2.75663 9.71429 4.73207C9.71429 4.85484 9.72513 4.98877 9.73597 5.11154L5.83291 7.12047C5.21492 6.52895 4.3801 6.16064 3.46939 6.16064C1.55038 6.16064 0 7.75663 0 9.73207C0 11.7075 1.55038 13.3035 3.46939 13.3035C4.3801 13.3035 5.21492 12.9352 5.83291 12.3437L9.73597 14.3526C9.72513 14.4754 9.71429 14.6093 9.71429 14.7321C9.71429 16.7075 11.2647 18.3035 13.1837 18.3035C15.1027 18.3035 16.6531 16.7075 16.6531 14.7321C16.6531 12.7566 15.1027 11.1606 13.1837 11.1606Z" fill="#B10028"/>
</svg>
