<svg width="60" height="60" viewBox="0 0 60 60" fill="none" xmlns="http://www.w3.org/2000/svg">
<rect width="60" height="60" fill="#B10028"/>
<path fill-rule="evenodd" clip-rule="evenodd" d="M38.6023 29.5961L29.7692 20.763C29.3659 20.3597 29.3659 19.7058 29.7692 19.3025C30.1725 18.8992 30.8264 18.8992 31.2298 19.3025L41.6783 29.751C41.6848 29.7572 41.6912 29.7634 41.6975 29.7698C42.1008 30.1731 42.1008 30.827 41.6975 31.2303L31.2303 41.6975C30.827 42.1008 30.1731 42.1008 29.7698 41.6975C29.3665 41.2941 29.3665 40.6402 29.7698 40.2369L38.2031 31.8036L18.0136 31.8036C17.404 31.8036 16.9098 31.3095 16.9098 30.6999C16.9098 30.0903 17.404 29.5961 18.0136 29.5961L38.6023 29.5961Z" fill="white"/>
</svg>
