<svg width="60" height="60" viewBox="0 0 60 60" fill="none" xmlns="http://www.w3.org/2000/svg">
<rect width="60" height="60" fill="#B10028"/>
<path fill-rule="evenodd" clip-rule="evenodd" d="M20.3977 29.5961L29.2308 20.763C29.6341 20.3597 29.6341 19.7058 29.2308 19.3025C28.8275 18.8992 28.1736 18.8992 27.7702 19.3025L17.3217 29.751C17.3152 29.7572 17.3088 29.7634 17.3025 29.7698C16.8992 30.1731 16.8992 30.827 17.3025 31.2303L27.7697 41.6975C28.173 42.1008 28.8269 42.1008 29.2302 41.6975C29.6335 41.2941 29.6335 40.6402 29.2302 40.2369L20.7969 31.8036L40.9864 31.8036C41.596 31.8036 42.0902 31.3095 42.0902 30.6999C42.0902 30.0903 41.596 29.5961 40.9864 29.5961L20.3977 29.5961Z" fill="white"/>
</svg>
